<svg width="300" height="200" viewBox="0 0 300 200" fill="none" xmlns="http://www.w3.org/2000/svg">
<path d="M105.392 182H102.597L108.878 164.545H111.92L118.202 182H115.406L110.472 167.716H110.335L105.392 182ZM105.861 175.165H114.929V177.381H105.861V175.165ZM125.808 168.909V170.955H118.658V168.909H125.808ZM120.575 165.773H123.124V178.156C123.124 178.651 123.197 179.023 123.345 179.273C123.493 179.517 123.683 179.685 123.916 179.776C124.155 179.861 124.413 179.903 124.692 179.903C124.896 179.903 125.075 179.889 125.229 179.861C125.382 179.832 125.501 179.81 125.587 179.793L126.047 181.898C125.899 181.955 125.689 182.011 125.416 182.068C125.143 182.131 124.803 182.165 124.393 182.17C123.723 182.182 123.098 182.062 122.518 181.812C121.939 181.562 121.47 181.176 121.112 180.653C120.754 180.131 120.575 179.474 120.575 178.685V165.773ZM132.437 182.29C131.607 182.29 130.857 182.136 130.187 181.83C129.516 181.517 128.985 181.065 128.593 180.474C128.207 179.884 128.013 179.159 128.013 178.301C128.013 177.562 128.156 176.955 128.44 176.477C128.724 176 129.107 175.622 129.59 175.344C130.073 175.065 130.613 174.855 131.21 174.713C131.806 174.571 132.414 174.463 133.033 174.389C133.817 174.298 134.454 174.224 134.942 174.168C135.431 174.105 135.786 174.006 136.008 173.869C136.229 173.733 136.34 173.511 136.34 173.205V173.145C136.34 172.401 136.13 171.824 135.71 171.415C135.295 171.006 134.675 170.801 133.852 170.801C132.994 170.801 132.317 170.991 131.823 171.372C131.335 171.747 130.996 172.165 130.809 172.625L128.414 172.08C128.698 171.284 129.113 170.642 129.658 170.153C130.21 169.659 130.843 169.301 131.559 169.08C132.275 168.852 133.028 168.739 133.817 168.739C134.34 168.739 134.894 168.801 135.479 168.926C136.07 169.045 136.621 169.267 137.133 169.591C137.65 169.915 138.073 170.378 138.403 170.98C138.732 171.577 138.897 172.352 138.897 173.307V182H136.408V180.21H136.306C136.141 180.54 135.894 180.864 135.565 181.182C135.235 181.5 134.812 181.764 134.295 181.974C133.778 182.185 133.158 182.29 132.437 182.29ZM132.991 180.244C133.695 180.244 134.298 180.105 134.798 179.827C135.303 179.548 135.687 179.185 135.948 178.736C136.215 178.281 136.349 177.795 136.349 177.278V175.591C136.258 175.682 136.082 175.767 135.82 175.847C135.565 175.92 135.272 175.986 134.942 176.043C134.613 176.094 134.292 176.142 133.979 176.188C133.667 176.227 133.406 176.261 133.195 176.29C132.701 176.352 132.249 176.457 131.84 176.605C131.437 176.753 131.113 176.966 130.869 177.244C130.63 177.517 130.511 177.881 130.511 178.335C130.511 178.966 130.744 179.443 131.21 179.767C131.675 180.085 132.269 180.244 132.991 180.244ZM144.839 164.545V182H142.291V164.545H144.839ZM150.816 174.227V182H148.268V164.545H150.782V171.04H150.944C151.251 170.335 151.719 169.776 152.35 169.361C152.981 168.946 153.805 168.739 154.822 168.739C155.719 168.739 156.504 168.923 157.174 169.293C157.85 169.662 158.373 170.213 158.742 170.946C159.117 171.673 159.305 172.582 159.305 173.673V182H156.756V173.98C156.756 173.02 156.509 172.276 156.015 171.747C155.521 171.213 154.833 170.946 153.952 170.946C153.35 170.946 152.81 171.074 152.333 171.33C151.862 171.585 151.489 171.96 151.217 172.455C150.95 172.943 150.816 173.534 150.816 174.227ZM168.219 182.264C166.992 182.264 165.921 181.983 165.006 181.42C164.092 180.858 163.381 180.071 162.876 179.06C162.37 178.048 162.117 176.866 162.117 175.514C162.117 174.156 162.37 172.969 162.876 171.952C163.381 170.935 164.092 170.145 165.006 169.582C165.921 169.02 166.992 168.739 168.219 168.739C169.447 168.739 170.518 169.02 171.433 169.582C172.347 170.145 173.058 170.935 173.563 171.952C174.069 172.969 174.322 174.156 174.322 175.514C174.322 176.866 174.069 178.048 173.563 179.06C173.058 180.071 172.347 180.858 171.433 181.42C170.518 181.983 169.447 182.264 168.219 182.264ZM168.228 180.125C169.023 180.125 169.683 179.915 170.205 179.494C170.728 179.074 171.114 178.514 171.364 177.815C171.62 177.116 171.748 176.347 171.748 175.506C171.748 174.67 171.62 173.903 171.364 173.205C171.114 172.5 170.728 171.935 170.205 171.509C169.683 171.082 169.023 170.869 168.228 170.869C167.427 170.869 166.762 171.082 166.234 171.509C165.711 171.935 165.322 172.5 165.066 173.205C164.816 173.903 164.691 174.67 164.691 175.506C164.691 176.347 164.816 177.116 165.066 177.815C165.322 178.514 165.711 179.074 166.234 179.494C166.762 179.915 167.427 180.125 168.228 180.125ZM190.106 164.545V182H187.464V167.188H187.362L183.185 169.915V167.392L187.54 164.545H190.106Z" fill="#111111"/>
<path d="M156.803 63V79.6667C156.803 80.7717 157.208 81.8315 157.928 82.6129C158.648 83.3943 159.625 83.8333 160.643 83.8333H176" stroke="#111111" stroke-width="2" stroke-linecap="round" stroke-linejoin="round"/>
<path d="M141.643 108.833H141.682M157.357 108.833H157.396M141.643 121.333H157.357M169.143 138H129.857C127.773 138 125.775 137.122 124.301 135.559C122.828 133.996 122 131.877 122 129.667V71.3333C122 69.1232 122.828 67.0036 124.301 65.4408C125.775 63.878 127.773 63 129.857 63H157.357L177 83.8333V129.667C177 131.877 176.172 133.996 174.699 135.559C173.225 137.122 171.227 138 169.143 138Z" stroke="#111111" stroke-width="2" stroke-linecap="round" stroke-linejoin="round"/>
<rect x="1" y="1" width="298" height="198" rx="14" stroke="#58246D" stroke-width="2"/>
</svg>
