<svg width="30" height="30" viewBox="0 0 30 30" fill="none" xmlns="http://www.w3.org/2000/svg">
<path d="M16.75 2.5H7.5C6.83696 2.5 6.20107 2.76339 5.73223 3.23223C5.26339 3.70107 5 4.33696 5 5V25C5 25.663 5.26339 26.2989 5.73223 26.7678C6.20107 27.2366 6.83696 27.5 7.5 27.5H22.5C23.163 27.5 23.7989 27.2366 24.2678 26.7678C24.7366 26.2989 25 25.663 25 25V15.75" stroke="#111111" stroke-width="2" stroke-linecap="round" stroke-linejoin="round"/>
<path d="M2.5 7.5H7.5" stroke="#111111" stroke-width="2" stroke-linecap="round" stroke-linejoin="round"/>
<path d="M2.5 12.5H7.5" stroke="#111111" stroke-width="2" stroke-linecap="round" stroke-linejoin="round"/>
<path d="M2.5 17.5H7.5" stroke="#111111" stroke-width="2" stroke-linecap="round" stroke-linejoin="round"/>
<path d="M2.5 22.5H7.5" stroke="#111111" stroke-width="2" stroke-linecap="round" stroke-linejoin="round"/>
<path d="M26.7225 7.03244C27.2204 6.5345 27.5002 5.85914 27.5002 5.15494C27.5002 4.45074 27.2204 3.77539 26.7225 3.27744C26.2245 2.7795 25.5492 2.49976 24.845 2.49976C24.1408 2.49976 23.4654 2.7795 22.9675 3.27744L16.705 9.54244C16.4078 9.83947 16.1902 10.2066 16.0725 10.6099L15.0262 14.1974C14.9948 14.305 14.993 14.419 15.0208 14.5276C15.0486 14.6361 15.1051 14.7352 15.1843 14.8144C15.2635 14.8936 15.3626 14.9501 15.4711 14.9779C15.5796 15.0057 15.6937 15.0038 15.8012 14.9724L19.3887 13.9262C19.7921 13.8084 20.1592 13.5909 20.4562 13.2937L26.7225 7.03244Z" stroke="#111111" stroke-width="2" stroke-linecap="round" stroke-linejoin="round"/>
</svg>
