<svg width="30" height="30" viewBox="0 0 30 30" fill="none" xmlns="http://www.w3.org/2000/svg">
<path d="M20 12.5H22.5" stroke="#111111" stroke-width="2" stroke-linecap="round" stroke-linejoin="round"/>
<path d="M20 17.5H22.5" stroke="#111111" stroke-width="2" stroke-linecap="round" stroke-linejoin="round"/>
<path d="M7.7124 18.75C7.97008 18.0175 8.44878 17.383 9.08243 16.9342C9.71607 16.4854 10.4734 16.2444 11.2499 16.2444C12.0264 16.2444 12.7837 16.4854 13.4174 16.9342C14.051 17.383 14.5297 18.0175 14.7874 18.75" stroke="#111111" stroke-width="2" stroke-linecap="round" stroke-linejoin="round"/>
<path d="M11.25 16.25C12.6307 16.25 13.75 15.1307 13.75 13.75C13.75 12.3693 12.6307 11.25 11.25 11.25C9.86929 11.25 8.75 12.3693 8.75 13.75C8.75 15.1307 9.86929 16.25 11.25 16.25Z" stroke="#111111" stroke-width="2" stroke-linecap="round" stroke-linejoin="round"/>
<path d="M25 6.25H5C3.61929 6.25 2.5 7.36929 2.5 8.75V21.25C2.5 22.6307 3.61929 23.75 5 23.75H25C26.3807 23.75 27.5 22.6307 27.5 21.25V8.75C27.5 7.36929 26.3807 6.25 25 6.25Z" stroke="#111111" stroke-width="2" stroke-linecap="round" stroke-linejoin="round"/>
</svg>
