<svg width="30" height="30" viewBox="0 0 30 30" fill="none" xmlns="http://www.w3.org/2000/svg">
<path d="M17.5 22.5V7.5C17.5 6.83696 17.2366 6.20107 16.7678 5.73223C16.2989 5.26339 15.663 5 15 5H5C4.33696 5 3.70107 5.26339 3.23223 5.73223C2.76339 6.20107 2.5 6.83696 2.5 7.5V21.25C2.5 21.5815 2.6317 21.8995 2.86612 22.1339C3.10054 22.3683 3.41848 22.5 3.75 22.5H6.25" stroke="#111111" stroke-width="2" stroke-linecap="round" stroke-linejoin="round"/>
<path d="M18.75 22.5H11.25" stroke="#111111" stroke-width="2" stroke-linecap="round" stroke-linejoin="round"/>
<path d="M23.75 22.5H26.25C26.5815 22.5 26.8995 22.3683 27.1339 22.1339C27.3683 21.8995 27.5 21.5815 27.5 21.25V16.6875C27.4995 16.4038 27.4025 16.1288 27.225 15.9075L22.875 10.47C22.7581 10.3236 22.6098 10.2054 22.441 10.124C22.2722 10.0426 22.0874 10.0003 21.9 10H17.5" stroke="#111111" stroke-width="2" stroke-linecap="round" stroke-linejoin="round"/>
<path d="M21.25 25C22.6307 25 23.75 23.8807 23.75 22.5C23.75 21.1193 22.6307 20 21.25 20C19.8693 20 18.75 21.1193 18.75 22.5C18.75 23.8807 19.8693 25 21.25 25Z" stroke="#111111" stroke-width="2" stroke-linecap="round" stroke-linejoin="round"/>
<path d="M8.75 25C10.1307 25 11.25 23.8807 11.25 22.5C11.25 21.1193 10.1307 20 8.75 20C7.36929 20 6.25 21.1193 6.25 22.5C6.25 23.8807 7.36929 25 8.75 25Z" stroke="#111111" stroke-width="2" stroke-linecap="round" stroke-linejoin="round"/>
</svg>
