<svg width="42" height="42" viewBox="0 0 42 42" fill="none" xmlns="http://www.w3.org/2000/svg">
<path d="M21 21C24.3137 21 27 18.3137 27 15C27 11.6863 24.3137 9 21 9C17.6863 9 15 11.6863 15 15C15 18.3137 17.6863 21 21 21Z" stroke="#F1DFF8" stroke-width="1.5"/>
<path d="M21 41C32.0457 41 41 32.0457 41 21C41 9.9543 32.0457 1 21 1C9.9543 1 1 9.9543 1 21C1 32.0457 9.9543 41 21 41Z" stroke="#F1DFF8" stroke-width="1.5"/>
<path d="M32.9403 37C32.6203 31.216 30.8503 27 21.0003 27C11.1503 27 9.3803 31.216 9.0603 37" stroke="#F1DFF8" stroke-width="1.5" stroke-linecap="round"/>
</svg>
