<svg width="34" height="34" viewBox="0 0 34 34" fill="none" xmlns="http://www.w3.org/2000/svg">
<path d="M17 2L12.5 6.5H6.5V12.5L2 17L6.5 21.5V27.5H12.5L17 32L21.5 27.5H27.5V21.5L32 17L27.5 12.5V6.5H21.5L17 2Z" stroke="#111111" stroke-width="2.5" stroke-linejoin="round"/>
<path d="M17 21.5C18.1935 21.5 19.3381 21.0259 20.182 20.182C21.0259 19.3381 21.5 18.1935 21.5 17C21.5 15.8065 21.0259 14.6619 20.182 13.818C19.3381 12.9741 18.1935 12.5 17 12.5C15.8065 12.5 14.6619 12.9741 13.818 13.818C12.9741 14.6619 12.5 15.8065 12.5 17C12.5 18.1935 12.9741 19.3381 13.818 20.182C14.6619 21.0259 15.8065 21.5 17 21.5Z" stroke="#111111" stroke-width="2.5" stroke-linejoin="round"/>
</svg>
