<svg width="30" height="30" viewBox="0 0 30 30" fill="none" xmlns="http://www.w3.org/2000/svg">
<path d="M23.75 8.75V5C23.75 4.66848 23.6183 4.35054 23.3839 4.11612C23.1495 3.8817 22.8315 3.75 22.5 3.75H6.25C5.58696 3.75 4.95107 4.01339 4.48223 4.48223C4.01339 4.95107 3.75 5.58696 3.75 6.25C3.75 6.91304 4.01339 7.54893 4.48223 8.01777C4.95107 8.48661 5.58696 8.75 6.25 8.75H25C25.3315 8.75 25.6495 8.8817 25.8839 9.11612C26.1183 9.35054 26.25 9.66848 26.25 10V15M26.25 15H22.5C21.837 15 21.2011 15.2634 20.7322 15.7322C20.2634 16.2011 20 16.837 20 17.5C20 18.163 20.2634 18.7989 20.7322 19.2678C21.2011 19.7366 21.837 20 22.5 20H26.25C26.5815 20 26.8995 19.8683 27.1339 19.6339C27.3683 19.3995 27.5 19.0815 27.5 18.75V16.25C27.5 15.9185 27.3683 15.6005 27.1339 15.3661C26.8995 15.1317 26.5815 15 26.25 15Z" stroke="black" stroke-width="2.33333" stroke-linecap="round" stroke-linejoin="round"/>
<path d="M3.75 6.25V23.75C3.75 24.413 4.01339 25.0489 4.48223 25.5178C4.95107 25.9866 5.58696 26.25 6.25 26.25H25C25.3315 26.25 25.6495 26.1183 25.8839 25.8839C26.1183 25.6495 26.25 25.3315 26.25 25V20" stroke="black" stroke-width="2.33333" stroke-linecap="round" stroke-linejoin="round"/>
</svg>
