<svg width="30" height="30" viewBox="0 0 30 30" fill="none" xmlns="http://www.w3.org/2000/svg">
<path d="M3.40909 30C2.47159 30 1.66932 29.6739 1.00227 29.0216C0.335227 28.3694 0.00113636 27.5844 0 26.6666V3.33333C0 2.41666 0.334091 1.63222 1.00227 0.979999C1.67045 0.327778 2.47273 0.00111111 3.40909 0H13.6364C14.1193 0 14.5244 0.16 14.8517 0.48C15.179 0.8 15.342 1.19555 15.3409 1.66667C15.3398 2.13778 15.1761 2.53389 14.85 2.855C14.5239 3.17611 14.1193 3.33555 13.6364 3.33333H3.40909V26.6666H13.6364C14.1193 26.6666 14.5244 26.8266 14.8517 27.1466C15.179 27.4666 15.342 27.8622 15.3409 28.3333C15.3398 28.8044 15.1761 29.2005 14.85 29.5216C14.5239 29.8428 14.1193 30.0022 13.6364 30H3.40909ZM24.1619 16.6667H11.9318C11.4489 16.6667 11.0443 16.5067 10.7182 16.1867C10.392 15.8667 10.2284 15.4711 10.2273 15C10.2261 14.5289 10.3898 14.1333 10.7182 13.8133C11.0466 13.4933 11.4511 13.3333 11.9318 13.3333H24.1619L20.9659 10.2083C20.6534 9.90277 20.4972 9.52777 20.4972 9.08333C20.4972 8.63888 20.6534 8.24999 20.9659 7.91666C21.2784 7.58333 21.6761 7.40944 22.1591 7.39499C22.642 7.38055 23.054 7.54055 23.3949 7.87499L29.4886 13.8333C29.8295 14.1667 30 14.5555 30 15C30 15.4444 29.8295 15.8333 29.4886 16.1667L23.3949 22.125C23.054 22.4583 22.6494 22.6183 22.1812 22.605C21.7131 22.5916 21.308 22.4178 20.9659 22.0833C20.6534 21.75 20.5045 21.3544 20.5193 20.8967C20.5341 20.4389 20.6972 20.0567 21.0085 19.75L24.1619 16.6667Z" fill="#111111"/>
</svg>
