<svg width="30" height="30" viewBox="0 0 30 30" fill="none" xmlns="http://www.w3.org/2000/svg">
<path d="M15 27.5V16.25" stroke="#111111" stroke-width="2" stroke-linecap="round" stroke-linejoin="round"/>
<path d="M18.9624 2.76254C19.2737 2.58847 19.6245 2.49707 19.9812 2.49707C20.3378 2.49707 20.6886 2.58847 20.9999 2.76254L26.2499 5.71254C26.6217 5.92279 26.931 6.22799 27.1463 6.59695C27.3615 6.96591 27.4749 7.38539 27.4749 7.81254C27.4749 8.23968 27.3615 8.65917 27.1463 9.02813C26.931 9.39708 26.6217 9.70228 26.2499 9.91254L11.0249 18.4875C10.7127 18.6656 10.3594 18.7593 9.9999 18.7593C9.64043 18.7593 9.28715 18.6656 8.9749 18.4875L3.7499 15.5375C3.37809 15.3273 3.06876 15.0221 2.85354 14.6531C2.63831 14.2842 2.5249 13.8647 2.5249 13.4375C2.5249 13.0104 2.63831 12.5909 2.85354 12.2219C3.06876 11.853 3.37809 11.5478 3.7499 11.3375L18.9624 2.76254Z" stroke="#111111" stroke-width="2" stroke-linecap="round" stroke-linejoin="round"/>
<path d="M25 16.25V21.0875C25.0005 21.5593 24.8713 22.0222 24.6267 22.4256C24.382 22.829 24.0311 23.1574 23.6125 23.375L16.1125 27.225C15.7689 27.4036 15.3873 27.4968 15 27.4968C14.6127 27.4968 14.2311 27.4036 13.8875 27.225L6.3875 23.375C5.96886 23.1574 5.61804 22.829 5.37335 22.4256C5.12866 22.0222 4.99951 21.5593 5 21.0875V16.25" stroke="#111111" stroke-width="2" stroke-linecap="round" stroke-linejoin="round"/>
<path d="M26.2499 15.5376C26.6217 15.3273 26.931 15.0221 27.1463 14.6531C27.3615 14.2842 27.4749 13.8647 27.4749 13.4376C27.4749 13.0104 27.3615 12.5909 27.1463 12.222C26.931 11.853 26.6217 11.5478 26.2499 11.3376L11.0374 2.75006C10.7273 2.57244 10.3761 2.479 10.0187 2.479C9.66125 2.479 9.31005 2.57244 8.9999 2.75006L3.7499 5.71256C3.37809 5.92281 3.06876 6.22801 2.85354 6.59697C2.63831 6.96593 2.5249 7.38541 2.5249 7.81256C2.5249 8.2397 2.63831 8.65919 2.85354 9.02815C3.06876 9.39711 3.37809 9.70231 3.7499 9.91256L18.9749 18.4876C19.2849 18.6657 19.6361 18.7594 19.9937 18.7594C20.3512 18.7594 20.7024 18.6657 21.0124 18.4876L26.2499 15.5376Z" stroke="#111111" stroke-width="2" stroke-linecap="round" stroke-linejoin="round"/>
</svg>
